# xmcd
#
# Track frame offsets:
#	150
#	11896
#	25848
#	39455
#	49892
#	62900
#	75752
#	90926
#	104429
#	119771
#	136241
#	148122
#	161193
#	176298
#	193058
#	206716
#	219357
#
# Disc length: 3133 seconds
#
# Revision: 1
# Processed by: cddbd v1.5.2PL0 Copyright (c) Steve Scherf et al.
# Submitted via: audiograbber 1.83.01
#
DISCID=ee0c3b11
DTITLE=Haggard, Merle Greatest Hits - CB5049
DYEAR=2005
DGENRE=Karaoke
TTITLE0=Haggard, Merle - Working Man Blues
TTITLE1=Haggard, Merle - Swinging Doors
TTITLE2=Haggard, Merle - The Bottle Let Me Down
TTITLE3=Haggard, Merle - Momma Tried
TTITLE4=Haggard, Merle - Sing Me Back Home
TTITLE5=Haggard, Merle - My Friends Are Gonna Be Strangers
TTITLE6=Haggard, Merle - Branded Man
TTITLE7=Haggard, Merle - Fightin' Side Of Me
TTITLE8=Haggard, Merle - I Threw Away The Rose
TTITLE9=Haggard, Merle - Daddy Frank
TTITLE10=Haggard, Merle - Someday We'll Look Back
TTITLE11=Haggard, Merle - Okie From Muskogee
TTITLE12=Haggard, Merle - Lonesome Fugitive
TTITLE13=Haggard, Merle - Hungry Eyes
TTITLE14=Haggard, Merle - I Take A Lot Of Pride In What I Am
TTITLE15=Haggard, Merle - Carolyn
TTITLE16=Haggard, Merle - It's Not Love But It's Not Bad
EXTD=
EXTT0=
EXTT1=
EXTT2=
EXTT3=
EXTT4=
EXTT5=
EXTT6=
EXTT7=
EXTT8=
EXTT9=
EXTT10=
EXTT11=
EXTT12=
EXTT13=
EXTT14=
EXTT15=
EXTT16=
PLAYORDER=
